<svg xmlns="http://www.w3.org/2000/svg" xmlns:xlink="http://www.w3.org/1999/xlink" width="737" height="1144" viewBox="0 0 737 1144">
  <defs>
    <style>
      .cls-1 {
        clip-path: url(#clip-iPhone_X_XS_2);
      }

      .cls-2 {
        fill: url(#linear-gradient);
      }

      .cls-3 {
        fill: url(#linear-gradient-2);
      }

      .cls-4 {
        fill: url(#linear-gradient-3);
      }

      .cls-5 {
        fill: #121212;
      }

      .cls-6 {
        fill: #fff;
      }

      .cls-7 {
        fill: url(#linear-gradient-4);
      }

      .cls-8 {
        fill: url(#linear-gradient-5);
      }

      .cls-9 {
        fill: url(#linear-gradient-10);
      }

      .cls-10 {
        fill: url(#linear-gradient-11);
      }

      .cls-11 {
        fill: #2d2d2d;
      }

      .cls-12 {
        fill: #5d5d5d;
      }

      .cls-13 {
        fill: #111;
        stroke: #262626;
      }

      .cls-14 {
        fill: #363636;
      }

      .cls-15 {
        opacity: 0.8;
      }

      .cls-16, .cls-22, .cls-24 {
        fill: #686868;
      }

      .cls-17 {
        fill: #0cb863;
      }

      .cls-18 {
        fill: #286090;
      }

      .cls-19 {
        fill: #8954ba;
      }

      .cls-19, .cls-20, .cls-22 {
        font-size: 8px;
      }

      .cls-19, .cls-24, .cls-25 {
        font-family: AktivGrotesk-Bold, Aktiv Grotesk;
        font-weight: 700;
      }

      .cls-20 {
        fill: rgba(104,104,104,0.6);
        font-family: AktivGrotesk-Light, Aktiv Grotesk;
        font-weight: 300;
      }

      .cls-21, .cls-23 {
        fill: none;
        stroke-linecap: square;
        stroke-miterlimit: 10;
      }

      .cls-21 {
        stroke: #8954ba;
      }

      .cls-22 {
        font-family: AktivGrotesk-Regular, Aktiv Grotesk;
      }

      .cls-23 {
        stroke: rgba(208,214,230,0.85);
      }

      .cls-24, .cls-25 {
        font-size: 14px;
      }

      .cls-25 {
        fill: #fffbfb;
      }

      .cls-26 {
        fill: #2f2e41;
      }

      .cls-27, .cls-30 {
        fill: #f2f2f2;
      }

      .cls-28 {
        fill: #3f3d56;
      }

      .cls-29 {
        fill: #6c63ff;
      }

      .cls-30, .cls-32 {
        opacity: 0.1;
      }

      .cls-31 {
        fill: #ff6584;
      }

      .cls-33 {
        filter: url(#Case);
      }
    </style>
    <linearGradient id="linear-gradient" x1="0.5" x2="0.5" y2="1" gradientUnits="objectBoundingBox">
      <stop offset="0" stop-color="#1a1a1a"/>
      <stop offset="1" stop-color="#0a0a0a"/>
    </linearGradient>
    <filter id="Case" x="10.5" y="-6.5" width="720" height="1157" filterUnits="userSpaceOnUse">
      <feOffset input="SourceAlpha"/>
      <feGaussianBlur stdDeviation="49.5" result="blur"/>
      <feFlood flood-opacity="0.49"/>
      <feComposite operator="in" in2="blur"/>
      <feComposite in="SourceGraphic"/>
    </filter>
    <linearGradient id="linear-gradient-2" x1="0.5" x2="0.5" y2="1" gradientUnits="objectBoundingBox">
      <stop offset="0" stop-color="#141414"/>
      <stop offset="1" stop-color="#1c1c1c"/>
    </linearGradient>
    <linearGradient id="linear-gradient-3" x1="0.5" x2="0.5" y2="1" gradientUnits="objectBoundingBox">
      <stop offset="0" stop-color="#1c1c1c"/>
      <stop offset="1" stop-color="#0d0d0d"/>
    </linearGradient>
    <linearGradient id="linear-gradient-4" x1="0.5" x2="0.5" y2="1" gradientUnits="objectBoundingBox">
      <stop offset="0" stop-color="#191919"/>
      <stop offset="1" stop-color="#0d0d0d"/>
    </linearGradient>
    <linearGradient id="linear-gradient-5" x1="1" y1="0.377" x2="0" y2="0.377" gradientUnits="objectBoundingBox">
      <stop offset="0" stop-opacity="0"/>
      <stop offset="0.322" stop-opacity="0"/>
      <stop offset="1"/>
    </linearGradient>
    <linearGradient id="linear-gradient-10" x1="0.5" x2="0.5" y2="1" gradientUnits="objectBoundingBox">
      <stop offset="0" stop-color="#0d0d0d"/>
      <stop offset="1" stop-color="#313131"/>
    </linearGradient>
    <linearGradient id="linear-gradient-11" x1="0.5" x2="0.5" y2="1" gradientUnits="objectBoundingBox">
      <stop offset="0" stop-color="#292929"/>
      <stop offset="1" stop-color="#1a1a1a"/>
    </linearGradient>
    <clipPath id="clip-iPhone_X_XS_2">
      <rect width="737" height="1144"/>
    </clipPath>
  </defs>
  <g id="iPhone_X_XS_2" data-name="iPhone X/XS – 2" class="cls-1">
    <rect class="cls-6" width="737" height="1144"/>
    <g id="Group_49" data-name="Group 49" transform="translate(-908 -553)">
      <g class="cls-33" transform="matrix(1, 0, 0, 1, 908, 553)">
        <path id="Case-2" data-name="Case" class="cls-2" d="M57,0H366a57,57,0,0,1,57,57V803a57,57,0,0,1-57,57H57A57,57,0,0,1,0,803V57A57,57,0,0,1,57,0Z" transform="translate(159 142)"/>
      </g>
      <path id="Bezel" class="cls-3" d="M47,0H360a47,47,0,0,1,47,47V797a47,47,0,0,1-47,47H47A47,47,0,0,1,0,797V47A47,47,0,0,1,47,0Z" transform="translate(1075 703)"/>
      <path id="Glass" class="cls-4" d="M44.441,0H358.559A44.326,44.326,0,0,1,403,44.211V795.789A44.326,44.326,0,0,1,358.559,840H44.441A44.326,44.326,0,0,1,0,795.789V44.211A44.326,44.326,0,0,1,44.441,0Z" transform="translate(1077 705)"/>
      <path id="Screen" class="cls-5" d="M337,812H38A38.043,38.043,0,0,1,0,774V38A38.043,38.043,0,0,1,38,0H78.263a6.812,6.812,0,0,1,5.23,5.17c.164.724.336,1.671.535,2.766.383,2.109.858,4.725,1.566,7.368.915,3.42,4.955,14.588,18.529,14.728,5.12.053,37.044.064,62.923.064,47.606,0,102.231-.038,104.786-.064,13.574-.14,17.614-11.308,18.529-14.728.709-2.649,1.185-5.268,1.567-7.373.2-1.1.371-2.042.534-2.761A6.592,6.592,0,0,1,297.647,0H337a38.043,38.043,0,0,1,38,38V774A38.043,38.043,0,0,1,337,812Z" transform="translate(1091 719)"/>
      <path id="Screen-2" data-name="Screen" class="cls-6" d="M337,812H38A38.043,38.043,0,0,1,0,774V38A38.043,38.043,0,0,1,38,0H78.263a6.812,6.812,0,0,1,5.23,5.17c.164.724.336,1.671.535,2.766.383,2.109.858,4.725,1.566,7.368.915,3.42,4.955,14.588,18.529,14.728,5.12.053,37.044.064,62.923.064,47.606,0,102.231-.038,104.786-.064,13.574-.14,17.614-11.308,18.529-14.728.709-2.649,1.185-5.268,1.567-7.373.2-1.1.371-2.042.534-2.761A6.592,6.592,0,0,1,297.647,0H337a38.043,38.043,0,0,1,38,38V774A38.043,38.043,0,0,1,337,812Z" transform="translate(1091 719)"/>
      <g id="Group_47" data-name="Group 47">
        <g id="Button" transform="translate(559 -635)">
          <path id="Path_76" data-name="Path 76" class="cls-7" d="M1,0H5V32H1a.972.972,0,0,1-1-.941V.941A.972.972,0,0,1,1,0Z" transform="translate(505 1447)"/>
          <g id="Group_40" data-name="Group 40" transform="translate(517 1447)">
            <path id="Rectangle_149" data-name="Rectangle 149" class="cls-8" d="M0,0H4A1,1,0,0,1,5,1V31a1,1,0,0,1-1,1H0a0,0,0,0,1,0,0V0A0,0,0,0,1,0,0Z" transform="translate(-7 32) rotate(180)"/>
          </g>
        </g>
        <g id="Button-2" data-name="Button" transform="translate(561 -635)">
          <path id="Path_81" data-name="Path 81" class="cls-7" d="M1,0H5V60H1a.97.97,0,0,1-1-.937V.938A.97.97,0,0,1,1,0Z" transform="translate(503 1510)"/>
          <g id="Group_42" data-name="Group 42" transform="translate(1397 2449)">
            <g id="Group_40-2" data-name="Group 40" transform="translate(-894 -939)">
              <path id="Rectangle_149-2" data-name="Rectangle 149" class="cls-8" d="M0,0H4A1,1,0,0,1,5,1V59a1,1,0,0,1-1,1H0a0,0,0,0,1,0,0V0A0,0,0,0,1,0,0Z" transform="translate(5 60) rotate(180)"/>
            </g>
          </g>
        </g>
        <g id="Button-3" data-name="Button" transform="translate(561 -635)">
          <path id="Path_84" data-name="Path 84" class="cls-7" d="M1,0H5V60H1a.97.97,0,0,1-1-.937V.938A.97.97,0,0,1,1,0Z" transform="translate(503 1588)"/>
          <g id="Group_45" data-name="Group 45" transform="translate(1386 2527)">
            <g id="Group_40-3" data-name="Group 40" transform="translate(-883 -939)">
              <path id="Rectangle_149-3" data-name="Rectangle 149" class="cls-8" d="M0,0H4A1,1,0,0,1,5,1V59a1,1,0,0,1-1,1H0a0,0,0,0,1,0,0V0A0,0,0,0,1,0,0Z" transform="translate(5 60) rotate(180)"/>
            </g>
          </g>
        </g>
        <g id="Camera" transform="translate(550 -635)">
          <ellipse id="Ellipse_7" data-name="Ellipse 7" class="cls-9" cx="7.5" cy="7.5" rx="7.5" ry="7.5" transform="translate(772 1355)"/>
          <circle id="Ellipse_8" data-name="Ellipse 8" class="cls-10" cx="6.5" cy="6.5" r="6.5" transform="translate(773 1356)"/>
          <ellipse id="Ellipse_10" data-name="Ellipse 10" class="cls-11" cx="4.5" cy="4.5" rx="4.5" ry="4.5" transform="translate(775 1358)"/>
          <ellipse id="Ellipse_9" data-name="Ellipse 9" class="cls-12" cx="1.5" cy="1" rx="1.5" ry="1" transform="translate(778 1358)"/>
        </g>
        <path id="Ear_Peice" data-name="Ear Peice" class="cls-13" d="M4,.5H59a3.5,3.5,0,0,1,0,7H4a3.5,3.5,0,0,1,0-7Z" transform="translate(1247 724)"/>
        <path id="Home" class="cls-14" d="M2.5,0h125a2.5,2.5,0,0,1,0,5H2.5a2.5,2.5,0,0,1,0-5Z" transform="translate(1214 1514)"/>
        <g id="Other_Options" data-name="Other Options" class="cls-15" transform="translate(1130 781.216)">
          <circle id="Oval_14" data-name="Oval 14" class="cls-16" cx="3.043" cy="3.043" r="3.043"/>
          <circle id="Oval_14_Copy" data-name="Oval 14 Copy" class="cls-16" cx="3.043" cy="3.043" r="3.043" transform="translate(9.129)"/>
          <circle id="Oval_14_Copy_2" data-name="Oval 14 Copy 2" class="cls-16" cx="3.043" cy="3.043" r="3.043" transform="translate(18.259)"/>
        </g>
        <rect id="Rectangle_19" data-name="Rectangle 19" class="cls-17" width="270.155" height="42.604" rx="2" transform="translate(1146 1304.559)"/>
        <rect id="Rectangle_19-2" data-name="Rectangle 19" class="cls-18" width="270.155" height="42.604" rx="2" transform="translate(1146 1359.559)"/>
        <g id="DB-Name" transform="translate(1146.144 1155.14)">
          <text id="Sales_Growth_2018" data-name="Sales Growth 2018" class="cls-19" transform="translate(0 33.388)"><tspan x="0" y="0">Enter E-mail Address</tspan></text>
          <text id="Dashboard_name" data-name="Dashboard name" class="cls-20" transform="translate(0 6)"><tspan x="0" y="0">Search Product</tspan></text>
          <path id="Line_17" data-name="Line 17" class="cls-21" d="M0,1H270" transform="translate(0 48.704)"/>
        </g>
        <text id="Select_Category" data-name="Select Category" class="cls-22" transform="translate(1146.144 1254.462)"><tspan x="0" y="0">Enter Product Name</tspan></text>
        <path id="Line_17_Copy" data-name="Line 17 Copy" class="cls-23" d="M0,1H270" transform="translate(1146.144 1276.879)"/>
        <text id="Save_Dashboard" data-name="Save Dashboard" class="cls-24" transform="translate(1273.033 1103.292)"><tspan x="-42.119" y="0">Imbue Spark</tspan><tspan x="-126.896" y="21">Cloud-based Product Review Platform</tspan></text>
        <text id="Save_Dashboard-2" data-name="Save Dashboard" class="cls-25" transform="translate(1281.033 1330.292)"><tspan x="-51.59" y="0">Search Product</tspan></text>
        <text id="Save_Dashboard-3" data-name="Save Dashboard" class="cls-25" transform="translate(1281.033 1386.292)"><tspan x="-23.625" y="0">Submit</tspan></text>
        <g id="undraw_moonlight_5ksn" transform="translate(1129.846 910.474)">
          <path id="Path_85" data-name="Path 85" class="cls-26" d="M236.176,198.5A143.156,143.156,0,0,0,93.025,340.528h286.3A143.155,143.155,0,0,0,236.176,198.5Z" transform="translate(-93.025 -198.5)"/>
          <circle id="Ellipse_11" data-name="Ellipse 11" class="cls-27" cx="1.412" cy="1.412" r="1.412" transform="translate(134.344 13.425)"/>
          <circle id="Ellipse_12" data-name="Ellipse 12" class="cls-27" cx="0.565" cy="0.565" r="0.565" transform="translate(90.861 60.862)"/>
          <circle id="Ellipse_13" data-name="Ellipse 13" class="cls-27" cx="0.565" cy="0.565" r="0.565" transform="translate(174.158 87.404)"/>
          <circle id="Ellipse_14" data-name="Ellipse 14" class="cls-27" cx="0.565" cy="0.565" r="0.565" transform="translate(27.047 80.345)"/>
          <circle id="Ellipse_15" data-name="Ellipse 15" class="cls-27" cx="0.565" cy="0.565" r="0.565" transform="translate(247.289 60.297)"/>
          <circle id="Ellipse_16" data-name="Ellipse 16" class="cls-27" cx="0.565" cy="0.565" r="0.565" transform="translate(66.013 66.226)"/>
          <circle id="Ellipse_17" data-name="Ellipse 17" class="cls-27" cx="0.565" cy="0.565" r="0.565" transform="translate(158.628 54.932)"/>
          <circle id="Ellipse_18" data-name="Ellipse 18" class="cls-27" cx="0.565" cy="0.565" r="0.565" transform="translate(177.264 14.272)"/>
          <rect id="Rectangle_169" data-name="Rectangle 169" class="cls-27" width="0.565" height="0.282" transform="translate(59.801 81.474)"/>
          <rect id="Rectangle_170" data-name="Rectangle 170" class="cls-27" width="0.565" height="0.282" transform="translate(76.46 38.273)"/>
          <rect id="Rectangle_171" data-name="Rectangle 171" class="cls-27" width="0.565" height="0.282" transform="translate(117.12 70.462)"/>
          <rect id="Rectangle_172" data-name="Rectangle 172" class="cls-27" width="0.565" height="0.282" transform="translate(224.983 82.886)"/>
          <rect id="Rectangle_173" data-name="Rectangle 173" class="cls-27" width="0.565" height="0.282" transform="translate(191.382 39.684)"/>
          <rect id="Rectangle_174" data-name="Rectangle 174" class="cls-28" width="0.994" height="39.249" transform="translate(63.556 102.69)"/>
          <path id="Path_86" data-name="Path 86" class="cls-28" d="M304.768,474.85c.063,13.725-9.593,24.9-9.593,24.9s-9.758-11.081-9.822-24.806,9.593-24.9,9.593-24.9S304.7,461.125,304.768,474.85Z" transform="translate(-231.047 -379.017)"/>
          <rect id="Rectangle_175" data-name="Rectangle 175" class="cls-28" width="1.288" height="50.885" transform="translate(50.997 91.054)"/>
          <path id="Path_87" data-name="Path 87" class="cls-28" d="M256.331,420.2c.082,17.793-12.436,32.275-12.436,32.275s-12.651-14.366-12.733-32.159S243.6,388.044,243.6,388.044,256.249,402.41,256.331,420.2Z" transform="translate(-192.157 -334.524)"/>
          <rect id="Rectangle_176" data-name="Rectangle 176" class="cls-29" width="0.994" height="39.249" transform="translate(201.067 102.69)"/>
          <path id="Path_88" data-name="Path 88" class="cls-28" d="M791.768,516.85c.063,13.724-9.593,24.9-9.593,24.9s-9.758-11.081-9.822-24.806,9.593-24.9,9.593-24.9S791.7,503.125,791.768,516.85Z" transform="translate(-580.537 -409.158)"/>
          <rect id="Rectangle_177" data-name="Rectangle 177" class="cls-28" width="0.994" height="39.249" transform="translate(39.838 102.69)"/>
          <path id="Path_89" data-name="Path 89" class="cls-28" d="M220.768,474.85c.063,13.725-9.593,24.9-9.593,24.9s-9.758-11.081-9.822-24.806,9.593-24.9,9.593-24.9S220.7,461.125,220.768,474.85Z" transform="translate(-170.766 -379.017)"/>
          <rect id="Rectangle_178" data-name="Rectangle 178" class="cls-28" width="0.994" height="39.249" transform="translate(127.37 102.69)"/>
          <path id="Path_90" data-name="Path 90" class="cls-28" d="M530.768,474.85c.063,13.725-9.593,24.9-9.593,24.9s-9.758-11.081-9.822-24.806,9.593-24.9,9.593-24.9S530.7,461.125,530.768,474.85Z" transform="translate(-393.233 -379.017)"/>
          <rect id="Rectangle_179" data-name="Rectangle 179" class="cls-28" width="1.288" height="50.885" transform="translate(114.811 91.054)"/>
          <path id="Path_91" data-name="Path 91" class="cls-28" d="M482.331,420.2c.082,17.793-12.436,32.275-12.436,32.275s-12.651-14.366-12.733-32.159S469.6,388.044,469.6,388.044,482.249,402.41,482.331,420.2Z" transform="translate(-354.343 -334.524)"/>
          <rect id="Rectangle_180" data-name="Rectangle 180" class="cls-28" width="0.994" height="39.249" transform="translate(103.652 102.69)"/>
          <path id="Path_92" data-name="Path 92" class="cls-28" d="M446.768,474.85c.063,13.725-9.593,24.9-9.593,24.9s-9.758-11.081-9.822-24.806,9.593-24.9,9.593-24.9S446.7,461.125,446.768,474.85Z" transform="translate(-332.952 -379.017)"/>
          <path id="Path_93" data-name="Path 93" class="cls-29" d="M789.022,588.111l-16.6-15.267c-.045.686-.068,1.38-.065,2.08.063,13.725,9.822,24.806,9.822,24.806A45.972,45.972,0,0,0,789.022,588.111Z" transform="translate(-580.536 -467.144)"/>
          <path id="Path_94" data-name="Path 94" class="cls-28" d="M393.232,678.084a6.759,6.759,0,0,0,2.517,3.405,5.819,5.819,0,0,0-2.06-7.615A6.758,6.758,0,0,0,393.232,678.084Z" transform="translate(-308.342 -539.646)"/>
          <path id="Path_95" data-name="Path 95" class="cls-28" d="M386.715,683a6.759,6.759,0,0,1,1.752,3.856,5.819,5.819,0,0,1-5.653-5.5A6.761,6.761,0,0,1,386.715,683Z" transform="translate(-300.988 -545.01)"/>
          <path id="Path_96" data-name="Path 96" class="cls-29" d="M677.232,678.084a6.759,6.759,0,0,0,2.517,3.405,5.82,5.82,0,0,0-2.06-7.615A6.758,6.758,0,0,0,677.232,678.084Z" transform="translate(-512.151 -539.646)"/>
          <path id="Path_97" data-name="Path 97" class="cls-29" d="M670.715,683a6.759,6.759,0,0,1,1.752,3.856,5.82,5.82,0,0,1-5.653-5.5A6.761,6.761,0,0,1,670.715,683Z" transform="translate(-504.797 -545.01)"/>
          <path id="Path_98" data-name="Path 98" class="cls-28" d="M169.232,678.084a6.759,6.759,0,0,0,2.517,3.405,5.819,5.819,0,0,0-2.06-7.615A6.758,6.758,0,0,0,169.232,678.084Z" transform="translate(-147.591 -539.646)"/>
          <path id="Path_99" data-name="Path 99" class="cls-28" d="M162.715,683a6.759,6.759,0,0,1,1.752,3.856,5.82,5.82,0,0,1-5.653-5.5A6.761,6.761,0,0,1,162.715,683Z" transform="translate(-140.238 -545.01)"/>
          <path id="Path_100" data-name="Path 100" class="cls-29" d="M480.358,396.843l27.251,41.13a32.082,32.082,0,0,0,.916-7.617,37.487,37.487,0,0,0-4.753-17.213l-1.261.313L503.7,413a43.785,43.785,0,0,0-4.993-7.454s-.7.8-1.711,2.246a59.635,59.635,0,0,0-10.747-19.753,55.772,55.772,0,0,0-5.887,8.8Z" transform="translate(-370.99 -334.524)"/>
          <path id="Path_101" data-name="Path 101" class="cls-30" d="M1016.6,691.159a.813.813,0,1,0,0-1.625h-6.681a1.817,1.817,0,0,1-.812,2.438.813.813,0,0,0,.813.813h6.681a.813.813,0,1,0,0-1.625Z" transform="translate(-750.437 -550.884)"/>
          <path id="Path_102" data-name="Path 102" class="cls-28" d="M949.5,683.46c.114,4.431-2.566,3.3-5.815,3.3s-5.93.565-5.951-3.3c-.011-1.9,2.653-2.318,5.9-2.318S949.454,681.557,949.5,683.46Z" transform="translate(-699.221 -544.862)"/>
          <path id="Path_103" data-name="Path 103" class="cls-28" d="M969.843,659.325a.5.5,0,0,0-.168-.054,8.4,8.4,0,0,1-.875-.187,1.844,1.844,0,0,1-.775-.431,1.869,1.869,0,0,0-.273-.261.328.328,0,0,0-.356-.026.244.244,0,0,0-.031.03l-.121-.08q-.323-.212-.648-.42l-.009-.006a.3.3,0,0,0,0-.1.5.5,0,0,0-.216-.268c.28,0,.562-.028.84-.058a1.007,1.007,0,0,0,.713-.279.193.193,0,0,0,.05-.115c0-.088-.09-.145-.171-.178a1.726,1.726,0,0,0-.335-.1,1.833,1.833,0,0,1-.238-.05,1.2,1.2,0,0,1-.2-.094l-.414-.228a.63.63,0,0,1-.16-.111c-.07-.074-.1-.18-.173-.253s-.333-.156-.371-.018c-.015.055.042.115.049.176a2.788,2.788,0,0,0-.286-.157c.005-.012.012-.023.017-.036a3.691,3.691,0,0,1-1.062-1.374c.041,0,.082,0,.123,0a.315.315,0,0,0,.2-.049.217.217,0,0,0,.07-.176.6.6,0,0,0-.048-.19,1.456,1.456,0,0,0-.275-.493,1.652,1.652,0,0,0-.4-.286l-.024-.013c-.01-.03-.019-.061-.031-.091a4.85,4.85,0,0,0-.3-.537,3.516,3.516,0,0,1-.345-.92,1.184,1.184,0,0,0-.218-.541,1.039,1.039,0,0,0-.9-.2c-.182.02-.363.048-.543.076,0,0,0-.01,0-.014a.37.37,0,0,1-.042-.137.569.569,0,0,1,.026-.115.283.283,0,0,0-.079-.26l-.022-.023q.03-.07.055-.142a.17.17,0,0,0,.04-.129,1.364,1.364,0,0,0,.052-.356,3.9,3.9,0,0,1-.029-.8.447.447,0,0,0-.071-.185c-.007-.009-.018-.013-.025-.021a1.138,1.138,0,0,1,.19-.2,2.85,2.85,0,0,1,.445-.282c.037-.021.09-.035.126-.059a1.263,1.263,0,0,0,1.354-1.712.444.444,0,0,0,.277-.2.833.833,0,0,0,.109-.352.368.368,0,0,0-.053-.278.622.622,0,0,0-.162-.113.619.619,0,0,1-.2-.2c-.036-.059-.061-.123-.093-.184a.683.683,0,0,0-.591-.391,2.557,2.557,0,0,0-.351.07c-.4.069-.825-.14-1.192.023a1.11,1.11,0,0,0-.249.166q-.155.128-.3.269a.616.616,0,0,0-.181.264c-.05.187.069.4-.007.574a.872.872,0,0,1-.092.144c-.083.122.007.6,0,.746a.276.276,0,0,0,.051.2.171.171,0,0,0,.037.028,16.537,16.537,0,0,0-1.8.766,3.86,3.86,0,0,0-1.671,1.561c-.1.194-.175.4-.265.6-.12.264-.265.516-.409.768-.176.307-.353.614-.557.9a5.18,5.18,0,0,0-.323.478.458.458,0,0,0,0,.073.129.129,0,0,1-.007.068.1.1,0,0,1-.077.044l0,.012a4.4,4.4,0,0,0-.115.452c-.06.243-.156.477-.193.724a.193.193,0,0,0,.188.3c.212.094.415.2.619.315,0,.015-.008.029-.01.044a.833.833,0,0,0,.442.772,2.274,2.274,0,0,0,.9.245c.122.015.244.021.366.034a2.491,2.491,0,0,0,.564.229.523.523,0,0,0,.132.021.4.4,0,0,0,.3-.17,20.862,20.862,0,0,0,3.149-.064,1.152,1.152,0,0,1,.85.132c.227.185.273.512.441.751a2.761,2.761,0,0,0,.411.4,6.123,6.123,0,0,1,.789,1.037,2.326,2.326,0,0,0,.95.877.672.672,0,0,1,.295-.257c.031-.019.061-.041.092-.061a1.168,1.168,0,0,0,.144.188c.04.044.081.09.119.138h0c-.055.009-.073.077-.08.133l-.073.635a.236.236,0,0,0,.008.126.222.222,0,0,0,.114.095,1.72,1.72,0,0,0,.627.165c.109.007.219,0,.329.014a3.96,3.96,0,0,1,.531.106,4.992,4.992,0,0,0,1.448.113.921.921,0,0,0,.294-.056.874.874,0,0,0,.29-.224.821.821,0,0,0,.218-.349A.339.339,0,0,0,969.843,659.325Z" transform="translate(-711.96 -518.976)"/>
          <path id="Path_104" data-name="Path 104" class="cls-31" d="M977.9,645.216c.047-.008.093-.021.139-.033a1.018,1.018,0,0,0-.442.043,1.234,1.234,0,0,0,.3-.01Z" transform="translate(-727.826 -519.051)"/>
          <path id="Path_105" data-name="Path 105" class="cls-31" d="M976.889,645.462c.032.061.058.125.093.184a.62.62,0,0,0,.2.2.625.625,0,0,1,.162.113.368.368,0,0,1,.053.278.832.832,0,0,1-.109.352.444.444,0,0,1-.277.2,1.245,1.245,0,0,1-1.354,1.712c-.036.024-.088.038-.126.059a2.847,2.847,0,0,0-.445.282,1.138,1.138,0,0,0-.189.2c.008.008.019.012.025.021a.449.449,0,0,1,.071.185,3.892,3.892,0,0,0,.029.8,1.361,1.361,0,0,1-.052.356.17.17,0,0,1-.04.129q-.025.072-.055.142l.022.023a.283.283,0,0,1,.079.26.573.573,0,0,0-.026.115.372.372,0,0,0,.042.137s0,.01,0,.014c.181-.028.362-.055.544-.076a2.69,2.69,0,0,1,.27-.018.186.186,0,0,1-.011-.057.568.568,0,0,1,.026-.115.283.283,0,0,0-.079-.26l-.022-.023q.03-.07.055-.142a.17.17,0,0,0,.04-.129,1.361,1.361,0,0,0,.052-.356,3.888,3.888,0,0,1-.029-.8.45.45,0,0,0-.071-.185c-.007-.009-.018-.013-.025-.021a1.133,1.133,0,0,1,.189-.2,2.84,2.84,0,0,1,.445-.282c.037-.021.09-.035.126-.059a1.255,1.255,0,0,0,.166.017,1.268,1.268,0,0,0,1.188-1.729.444.444,0,0,0,.277-.2.831.831,0,0,0,.109-.352.368.368,0,0,0-.053-.278.624.624,0,0,0-.162-.113.62.62,0,0,1-.2-.2c-.036-.059-.061-.123-.093-.184a.683.683,0,0,0-.59-.391,2.547,2.547,0,0,0-.351.07,1.066,1.066,0,0,1-.2.013A.788.788,0,0,1,976.889,645.462Z" transform="translate(-725.876 -518.976)"/>
          <path id="Path_106" data-name="Path 106" class="cls-31" d="M987.059,674.743a.5.5,0,0,0-.168-.054,8.414,8.414,0,0,1-.875-.187,1.843,1.843,0,0,1-.775-.431,1.866,1.866,0,0,0-.273-.261.328.328,0,0,0-.356-.026.229.229,0,0,0-.031.03l-.121-.08q-.322-.212-.648-.42l-.009-.006a.3.3,0,0,0,0-.1.5.5,0,0,0-.216-.268c.28,0,.562-.028.84-.058a1.008,1.008,0,0,0,.713-.279.194.194,0,0,0,.05-.115c0-.088-.09-.145-.171-.178a1.718,1.718,0,0,0-.335-.1,1.833,1.833,0,0,1-.238-.05,1.2,1.2,0,0,1-.2-.094l-.414-.228a.634.634,0,0,1-.16-.111c-.07-.074-.1-.18-.173-.253s-.333-.156-.371-.018c-.015.055.042.115.049.176a2.8,2.8,0,0,0-.287-.157c.005-.012.012-.023.017-.036a3.692,3.692,0,0,1-1.062-1.374c.041,0,.082,0,.123,0a.314.314,0,0,0,.2-.049.217.217,0,0,0,.07-.176.6.6,0,0,0-.048-.19,1.455,1.455,0,0,0-.275-.493,1.651,1.651,0,0,0-.4-.286l-.024-.013c-.01-.03-.019-.061-.031-.091a4.866,4.866,0,0,0-.3-.537,3.517,3.517,0,0,1-.345-.92,1.185,1.185,0,0,0-.218-.541,1.039,1.039,0,0,0-.9-.2c-.071.008-.142.02-.213.03a.6.6,0,0,1,.269.166,1.184,1.184,0,0,1,.218.541,3.523,3.523,0,0,0,.345.92,4.851,4.851,0,0,1,.3.537c.012.03.021.061.031.091l.024.013a1.649,1.649,0,0,1,.4.286,1.452,1.452,0,0,1,.275.493.6.6,0,0,1,.048.19.217.217,0,0,1-.07.176.315.315,0,0,1-.2.049c-.041,0-.082,0-.123,0a3.692,3.692,0,0,0,1.062,1.374c0,.013-.012.024-.017.036a2.8,2.8,0,0,1,.287.157c-.007-.061-.065-.121-.049-.176.038-.138.305-.049.371.018s.1.178.173.253a.633.633,0,0,0,.16.111l.414.228a1.2,1.2,0,0,0,.2.095,1.842,1.842,0,0,0,.238.05,1.719,1.719,0,0,1,.335.1c.081.033.172.091.171.178a.194.194,0,0,1-.05.115,1.008,1.008,0,0,1-.713.279c-.278.029-.56.055-.84.058a.5.5,0,0,1,.216.268.3.3,0,0,1,0,.1l.009.006q.326.208.648.42l.121.08a.232.232,0,0,1,.031-.03.328.328,0,0,1,.356.026,1.866,1.866,0,0,1,.273.261,1.843,1.843,0,0,0,.775.431,8.427,8.427,0,0,0,.875.187.5.5,0,0,1,.168.054.339.339,0,0,1,.125.369.822.822,0,0,1-.218.349.877.877,0,0,1-.29.224.757.757,0,0,1-.215.047,4.976,4.976,0,0,0,.768.008.92.92,0,0,0,.294-.056.874.874,0,0,0,.29-.224.822.822,0,0,0,.218-.349A.339.339,0,0,0,987.059,674.743Z" transform="translate(-729.177 -534.394)"/>
          <path id="Path_107" data-name="Path 107" class="cls-31" d="M989.694,693.031l.042.038c-.01-.015-.022-.03-.031-.045Z" transform="translate(-736.509 -553.389)"/>
          <path id="Path_108" data-name="Path 108" class="cls-31" d="M1019.216,662.711c0,2.992-1.334,2.167-2.979,2.167s-2.979.825-2.979-2.167,2.979-8.667,2.979-8.667S1019.216,659.719,1019.216,662.711Z" transform="translate(-753.419 -525.415)"/>
          <path id="Path_109" data-name="Path 109" class="cls-32" d="M1021.727,678.78c0,1.36-.606.985-1.354.985s-1.354.375-1.354-.985a12.476,12.476,0,0,1,1.354-3.94A12.476,12.476,0,0,1,1021.727,678.78Z" transform="translate(-757.553 -540.34)"/>
          <path id="Path_110" data-name="Path 110" class="cls-31" d="M1037.04,653.188a2.2,2.2,0,0,0,.607-1.275" transform="translate(-770.486 -523.886)"/>
          <path id="Path_111" data-name="Path 111" class="cls-31" d="M1012.5,634.506a2.2,2.2,0,0,0-.815-1.153" transform="translate(-752.289 -510.567)"/>
          <path id="Path_112" data-name="Path 112" class="cls-31" d="M990.5,593.506a2.2,2.2,0,0,0-.815-1.153" transform="translate(-736.505 -481.144)"/>
          <path id="Path_113" data-name="Path 113" class="cls-31" d="M1016.5,648.506a2.2,2.2,0,0,0-.815-1.153" transform="translate(-755.16 -520.614)"/>
          <path id="Path_114" data-name="Path 114" class="cls-31" d="M1013.5,599.506a2.2,2.2,0,0,0-.815-1.153" transform="translate(-753.007 -485.45)"/>
          <path id="Path_115" data-name="Path 115" class="cls-31" d="M1007.5,617.506a2.2,2.2,0,0,0-.815-1.153" transform="translate(-748.701 -498.367)"/>
          <path id="Path_116" data-name="Path 116" class="cls-31" d="M1035.04,684.188a2.2,2.2,0,0,0,.607-1.275" transform="translate(-769.051 -546.133)"/>
          <path id="Path_117" data-name="Path 117" class="cls-31" d="M1039.04,667.188a2.2,2.2,0,0,0,.607-1.275" transform="translate(-771.921 -533.933)"/>
          <rect id="Rectangle_181" data-name="Rectangle 181" class="cls-31" width="7.143" height="0.283" transform="matrix(0.949, -0.316, 0.316, 0.949, 252.609, 134.705)"/>
          <path id="Path_118" data-name="Path 118" class="cls-31" d="M1006.011,667.02c.254.994-.173.757-.562.837s-.313.439-.848-.545c-.37-.681.173-.757.562-.837S1005.839,666.341,1006.011,667.02Z" transform="translate(-747.117 -534.303)"/>
          <path id="Path_119" data-name="Path 119" class="cls-30" d="M386.1,137.16h0l-6.161-5.665-.055.014-2.467-2.243-.119-.035.128-.049-26.237-24.123h0l-25.338-23.3L312.944,88.61l-1.056.234L327.361,112.2l58.557,88.379h69.156Z" transform="translate(-223.823 -58.675)"/>
          <circle id="Ellipse_19" data-name="Ellipse 19" class="cls-27" cx="7.624" cy="7.624" r="7.624" transform="translate(86.908 18.507)"/>
        </g>
      </g>
    </g>
  </g>
</svg>
